<svg width="844" height="844" viewBox="0 0 844 844" fill="none" xmlns="http://www.w3.org/2000/svg">
<g filter="url(#filter0_d_1_2)">
<path fill-rule="evenodd" clip-rule="evenodd" d="M809.557 93.6187C793.608 63.7964 770.204 40.3916 740.381 24.4426C710.559 8.49366 680.979 0 599.405 0H244.595C163.021 1e-05 133.441 8.49366 103.619 24.4426C73.7964 40.3916 50.3917 63.7964 34.4426 93.6187C18.4935 123.441 10 153.021 10 234.595V589.405C10 670.979 18.4935 700.559 34.4426 730.381C50.3917 760.204 73.7964 783.608 103.619 799.557C133.441 815.506 163.021 824 244.595 824H599.405C680.979 824 710.559 815.506 740.381 799.557C770.204 783.608 793.608 760.204 809.557 730.381C825.506 700.559 834 670.979 834 589.405V234.595C834 153.022 825.506 123.441 809.557 93.6187Z" fill="white" fill-opacity="0.01" shape-rendering="crispEdges"/>
</g>
<path fill-rule="evenodd" clip-rule="evenodd" d="M809.557 93.6187C793.608 63.7964 770.204 40.3916 740.381 24.4426C710.559 8.49366 680.979 0 599.405 0H244.595C163.022 0 133.441 8.49365 103.619 24.4426C73.7964 40.3916 50.3917 63.7964 34.4426 93.6187C18.4935 123.441 10 153.021 10 234.595V589.405C10 670.979 18.4935 700.559 34.4426 730.381C50.3917 760.204 73.7964 783.608 103.619 799.557C133.441 815.506 163.022 824 244.595 824H599.405C680.979 824 710.559 815.506 740.381 799.557C770.204 783.608 793.608 760.204 809.557 730.381C825.506 700.559 834 670.979 834 589.405V234.595C834 153.021 825.506 123.441 809.557 93.6187Z" fill="url(#paint0_linear_1_2)"/>
<path fill-rule="evenodd" clip-rule="evenodd" d="M809.557 93.6187C793.608 63.7964 770.204 40.3916 740.381 24.4426C710.559 8.49366 680.979 0 599.405 0H244.595C163.022 0 133.441 8.49365 103.619 24.4426C73.7964 40.3916 50.3917 63.7964 34.4426 93.6187C18.4935 123.441 10 153.021 10 234.595V589.405C10 670.979 18.4935 700.559 34.4426 730.381C50.3917 760.204 73.7964 783.608 103.619 799.557C133.441 815.506 163.022 824 244.595 824H599.405C680.979 824 710.559 815.506 740.381 799.557C770.204 783.608 793.608 760.204 809.557 730.381C825.506 700.559 834 670.979 834 589.405V234.595C834 153.021 825.506 123.441 809.557 93.6187Z" fill="url(#paint1_linear_1_2)" fill-opacity="0.4" style="mix-blend-mode:multiply"/>
<mask id="mask0_1_2" style="mask-type:alpha" maskUnits="userSpaceOnUse" x="10" y="0" width="824" height="824">
<path fill-rule="evenodd" clip-rule="evenodd" d="M809.557 93.6187C793.608 63.7964 770.204 40.3916 740.381 24.4426C710.559 8.49366 680.979 0 599.405 0H244.595C163.022 0 133.441 8.49365 103.619 24.4426C73.7964 40.3916 50.3917 63.7964 34.4426 93.6187C18.4935 123.441 10 153.021 10 234.595V589.405C10 670.979 18.4935 700.559 34.4426 730.381C50.3917 760.204 73.7964 783.608 103.619 799.557C133.441 815.506 163.022 824 244.595 824H599.405C680.979 824 710.559 815.506 740.381 799.557C770.204 783.608 793.608 760.204 809.557 730.381C825.506 700.559 834 670.979 834 589.405V234.595C834 153.021 825.506 123.441 809.557 93.6187Z" fill="white"/>
</mask>
<g mask="url(#mask0_1_2)">
<g style="mix-blend-mode:multiply" opacity="0.16" filter="url(#filter1_f_1_2)">
<path fill-rule="evenodd" clip-rule="evenodd" d="M934 -100H-90V924H934V-100ZM740.381 24.4426C770.204 40.3916 793.608 63.7964 809.557 93.6187C825.506 123.441 834 153.021 834 234.595V589.405C834 670.979 825.506 700.559 809.557 730.381C793.608 760.204 770.204 783.608 740.381 799.557C710.559 815.506 680.979 824 599.405 824H244.595C163.022 824 133.441 815.506 103.619 799.557C73.7964 783.608 50.3917 760.204 34.4426 730.381C18.4935 700.559 10 670.979 10 589.405V234.595C10 153.021 18.4935 123.441 34.4426 93.6187C50.3917 63.7964 73.7964 40.3916 103.619 24.4426C133.441 8.49364 163.022 -7.62939e-06 244.595 -7.62939e-06H599.405C680.979 -7.62939e-06 710.559 8.49365 740.381 24.4426Z" fill="#3E3F47"/>
</g>
<g style="mix-blend-mode:multiply" opacity="0.24" filter="url(#filter2_f_1_2)">
<path fill-rule="evenodd" clip-rule="evenodd" d="M934 -100H-90V924H934V-100ZM740.381 24.4426C770.204 40.3916 793.608 63.7964 809.557 93.6187C825.506 123.441 834 153.021 834 234.595V589.405C834 670.979 825.506 700.559 809.557 730.381C793.608 760.204 770.204 783.608 740.381 799.557C710.559 815.506 680.979 824 599.405 824H244.595C163.022 824 133.441 815.506 103.619 799.557C73.7964 783.608 50.3917 760.204 34.4426 730.381C18.4935 700.559 10 670.979 10 589.405V234.595C10 153.021 18.4935 123.441 34.4426 93.6187C50.3917 63.7964 73.7964 40.3916 103.619 24.4426C133.441 8.49364 163.022 -7.62939e-06 244.595 -7.62939e-06H599.405C680.979 -7.62939e-06 710.559 8.49365 740.381 24.4426Z" fill="#3E3F47"/>
</g>
<g style="mix-blend-mode:overlay" opacity="0.63" filter="url(#filter3_f_1_2)">
<path fill-rule="evenodd" clip-rule="evenodd" d="M10 581.405V589.405C10 670.979 18.4935 700.559 34.4426 730.381C50.3917 760.204 73.7964 783.608 103.619 799.557C133.441 815.506 163.022 824 244.595 824H599.405C680.979 824 710.559 815.506 740.381 799.557C770.204 783.608 793.608 760.204 809.557 730.381C825.506 700.559 834 670.979 834 589.405V581.405C834 662.979 825.506 692.559 809.557 722.381C793.608 752.204 770.204 775.608 740.381 791.557C710.559 807.506 680.979 816 599.405 816H244.595C163.022 816 133.441 807.506 103.619 791.557C73.7964 775.608 50.3917 752.204 34.4426 722.381C18.4935 692.559 10 662.979 10 581.405Z" fill="#C1C5D3"/>
</g>
</g>
<mask id="mask1_1_2" style="mask-type:alpha" maskUnits="userSpaceOnUse" x="10" y="0" width="824" height="824">
<path fill-rule="evenodd" clip-rule="evenodd" d="M809.557 93.6187C793.608 63.7964 770.204 40.3916 740.381 24.4426C710.559 8.49366 680.979 0 599.405 0H244.595C163.022 0 133.441 8.49365 103.619 24.4426C73.7964 40.3916 50.3917 63.7964 34.4426 93.6187C18.4935 123.441 10 153.021 10 234.595V589.405C10 670.979 18.4935 700.559 34.4426 730.381C50.3917 760.204 73.7964 783.608 103.619 799.557C133.441 815.506 163.022 824 244.595 824H599.405C680.979 824 710.559 815.506 740.381 799.557C770.204 783.608 793.608 760.204 809.557 730.381C825.506 700.559 834 670.979 834 589.405V234.595C834 153.021 825.506 123.441 809.557 93.6187Z" fill="white"/>
</mask>
<g mask="url(#mask1_1_2)">
<g opacity="0.16" filter="url(#filter4_f_1_2)">
<ellipse cx="422" cy="295" rx="368" ry="261" fill="url(#paint2_linear_1_2)"/>
</g>
</g>
<mask id="mask2_1_2" style="mask-type:alpha" maskUnits="userSpaceOnUse" x="10" y="0" width="824" height="824">
<path fill-rule="evenodd" clip-rule="evenodd" d="M809.557 93.6187C793.608 63.7964 770.204 40.3916 740.381 24.4426C710.559 8.49366 680.979 0 599.405 0H244.595C163.022 0 133.441 8.49365 103.619 24.4426C73.7964 40.3916 50.3917 63.7964 34.4426 93.6187C18.4935 123.441 10 153.021 10 234.595V589.405C10 670.979 18.4935 700.559 34.4426 730.381C50.3917 760.204 73.7964 783.608 103.619 799.557C133.441 815.506 163.022 824 244.595 824H599.405C680.979 824 710.559 815.506 740.381 799.557C770.204 783.608 793.608 760.204 809.557 730.381C825.506 700.559 834 670.979 834 589.405V234.595C834 153.021 825.506 123.441 809.557 93.6187Z" fill="white"/>
</mask>
<g mask="url(#mask2_1_2)">
<g style="mix-blend-mode:multiply" opacity="0.24" filter="url(#filter5_f_1_2)">
<path d="M789.83 848H54.1699L111 590H733L789.83 848Z" fill="url(#paint3_linear_1_2)"/>
</g>
<g style="mix-blend-mode:multiply" opacity="0.24" filter="url(#filter6_f_1_2)">
<path d="M773.83 848H70.1699L127 590H717L773.83 848Z" fill="url(#paint4_linear_1_2)"/>
</g>
<g style="mix-blend-mode:multiply" opacity="0.24" filter="url(#filter7_f_1_2)">
<path d="M741.83 848H102.17L159 590H685L741.83 848Z" fill="url(#paint5_linear_1_2)"/>
</g>
<g style="mix-blend-mode:multiply" opacity="0.24" filter="url(#filter8_f_1_2)">
<path d="M709.83 848H134.17L191 590H653L709.83 848Z" fill="url(#paint6_linear_1_2)"/>
</g>
<g filter="url(#filter9_i_1_2)">
<path d="M785.953 661.833C780.225 636.603 767.291 578.165 764.859 566C761.861 551 757.864 548 732.879 548H111.121C86.1365 548 82.1389 551 79.1407 566C76.7092 578.165 63.7745 636.603 58.0473 661.833C55.8217 671.638 57.097 675.75 62.3177 683.038C72.6327 697.437 89.6657 721.06 100.128 735C113.813 753.234 121.115 754 150.43 754H693.57C722.885 754 730.187 753.234 743.872 735C754.334 721.06 771.367 697.437 781.682 683.038C786.903 675.75 788.178 671.638 785.953 661.833Z" fill="url(#paint7_linear_1_2)"/>
<path d="M785.953 661.833C780.225 636.603 767.291 578.165 764.859 566C761.861 551 757.864 548 732.879 548H111.121C86.1365 548 82.1389 551 79.1407 566C76.7092 578.165 63.7745 636.603 58.0473 661.833C55.8217 671.638 57.097 675.75 62.3177 683.038C72.6327 697.437 89.6657 721.06 100.128 735C113.813 753.234 121.115 754 150.43 754H693.57C722.885 754 730.187 753.234 743.872 735C754.334 721.06 771.367 697.437 781.682 683.038C786.903 675.75 788.178 671.638 785.953 661.833Z" fill="url(#paint8_linear_1_2)"/>
<path d="M785.953 661.833C780.225 636.603 767.291 578.165 764.859 566C761.861 551 757.864 548 732.879 548H111.121C86.1365 548 82.1389 551 79.1407 566C76.7092 578.165 63.7745 636.603 58.0473 661.833C55.8217 671.638 57.097 675.75 62.3177 683.038C72.6327 697.437 89.6657 721.06 100.128 735C113.813 753.234 121.115 754 150.43 754H693.57C722.885 754 730.187 753.234 743.872 735C754.334 721.06 771.367 697.437 781.682 683.038C786.903 675.75 788.178 671.638 785.953 661.833Z" fill="url(#paint9_linear_1_2)" fill-opacity="0.5" style="mix-blend-mode:multiply"/>
<path d="M785.953 661.833C780.225 636.603 767.291 578.165 764.859 566C761.861 551 757.864 548 732.879 548H111.121C86.1365 548 82.1389 551 79.1407 566C76.7092 578.165 63.7745 636.603 58.0473 661.833C55.8217 671.638 57.097 675.75 62.3177 683.038C72.6327 697.437 89.6657 721.06 100.128 735C113.813 753.234 121.115 754 150.43 754H693.57C722.885 754 730.187 753.234 743.872 735C754.334 721.06 771.367 697.437 781.682 683.038C786.903 675.75 788.178 671.638 785.953 661.833Z" fill="url(#paint10_linear_1_2)" fill-opacity="0.5" style="mix-blend-mode:multiply"/>
<path d="M785.953 661.833C780.225 636.603 767.291 578.165 764.859 566C761.861 551 757.864 548 732.879 548H111.121C86.1365 548 82.1389 551 79.1407 566C76.7092 578.165 63.7745 636.603 58.0473 661.833C55.8217 671.638 57.097 675.75 62.3177 683.038C72.6327 697.437 89.6657 721.06 100.128 735C113.813 753.234 121.115 754 150.43 754H693.57C722.885 754 730.187 753.234 743.872 735C754.334 721.06 771.367 697.437 781.682 683.038C786.903 675.75 788.178 671.638 785.953 661.833Z" fill="url(#paint11_linear_1_2)" fill-opacity="0.5" style="mix-blend-mode:multiply"/>
</g>
</g>
<mask id="mask3_1_2" style="mask-type:alpha" maskUnits="userSpaceOnUse" x="57" y="548" width="730" height="206">
<path d="M785.953 661.833C780.225 636.603 767.291 578.165 764.859 566C761.861 551 757.864 548 732.879 548H111.121C86.1365 548 82.1389 551 79.1407 566C76.7092 578.165 63.7745 636.603 58.0473 661.833C55.8217 671.638 57.097 675.75 62.3177 683.038C72.6327 697.437 89.6657 721.06 100.128 735C113.813 753.234 121.115 754 150.43 754H693.57C722.885 754 730.187 753.234 743.872 735C754.334 721.06 771.367 697.437 781.682 683.038C786.903 675.75 788.178 671.638 785.953 661.833Z" fill="white"/>
</mask>
<g mask="url(#mask3_1_2)">
<g filter="url(#filter10_f_1_2)">
<path d="M786.81 672.28C783.36 679.32 775.35 684.33 766.09 684.33H78.04C68.77 684.33 60.75 679.32 57.3 672.26C57.28 672.16 57.2299 672.03 57.13 671.85C56.79 669.08 57.1099 665.96 58.05 661.83C63.77 636.6 76.7099 578.17 79.14 566C82.14 551 86.14 548 111.12 548H732.88C757.86 548 761.86 551 764.86 566C767.29 578.17 780.23 636.6 785.95 661.83C786.94 666.17 787.24 669.4 786.81 672.28Z" fill="url(#paint12_linear_1_2)"/>
</g>
<g filter="url(#filter11_f_1_2)">
<path fill-rule="evenodd" clip-rule="evenodd" d="M766.09 680.33C775.35 680.33 783.36 675.32 786.81 668.28C786.847 668.03 786.879 667.777 786.905 667.522C787.058 669.264 787.028 670.817 786.81 672.28C783.36 679.32 775.35 684.33 766.09 684.33H78.04C68.77 684.33 60.75 679.32 57.3 672.26C57.28 672.16 57.2299 672.03 57.13 671.85C56.9662 670.516 56.9556 669.1 57.0937 667.529C57.1048 667.637 57.1169 667.744 57.13 667.85C57.2299 668.03 57.28 668.16 57.3 668.26C60.75 675.32 68.77 680.33 78.04 680.33H766.09Z" fill="url(#paint13_linear_1_2)"/>
</g>
<g style="mix-blend-mode:multiply" opacity="0.23" filter="url(#filter12_f_1_2)">
<path d="M596.5 548L610.5 682L580.5 755.5" stroke="#4E505A" stroke-width="4"/>
</g>
</g>
<g filter="url(#filter13_diii_1_2)">
<path d="M661.517 558.295C661.336 557.087 662.272 556 663.495 556H700.979C701.943 556 702.77 556.688 702.945 557.636L708.885 589.746C709.112 590.976 708.169 592.11 706.918 592.11H668.294C667.303 592.11 666.462 591.385 666.315 590.405L661.517 558.295ZM662.156 632.238C663.379 632.238 664.315 631.151 664.135 629.942L659.932 601.814C659.785 600.835 658.943 600.11 657.953 600.11H615.879C614.684 600.11 613.754 601.146 613.892 602.333C614.952 611.52 616.093 621.396 617.144 630.476C617.261 631.484 618.114 632.238 619.13 632.238H662.156ZM718.528 641.874C718.353 640.926 717.525 640.238 716.562 640.238H676.083C674.86 640.238 673.924 641.325 674.104 642.533L678.905 674.66C679.052 675.639 679.885 676.364 680.876 676.364C694.354 676.362 709.113 676.358 722.512 676.352C723.762 676.352 724.696 675.217 724.469 673.988L718.528 641.874ZM714.341 632.238C715.592 632.238 716.535 631.104 716.308 629.874L711.104 601.746C710.929 600.798 710.102 600.11 709.138 600.11H670.087C668.864 600.11 667.928 601.196 668.108 602.405L672.312 630.533C672.458 631.513 673.299 632.238 674.29 632.238H714.341ZM656.16 592.11C657.383 592.11 658.319 591.023 658.139 589.814L653.341 557.705C653.194 556.725 652.354 556 651.362 556H620.75C617.879 556 615.079 556.25 612.997 556.499C610.973 556.742 609.471 558.475 609.486 560.513C609.501 562.501 609.597 565.113 609.903 567.761C610.098 569.434 611.137 578.456 612.508 590.336C612.624 591.346 613.479 592.11 614.496 592.11H656.16ZM778.18 663.72C778.17 663.68 778.16 663.64 778.15 663.6C777.699 661.612 775.803 653.056 773.317 641.809C773.115 640.893 772.303 640.238 771.364 640.238H728.766C727.515 640.238 726.571 641.372 726.799 642.602L732.739 674.711C732.915 675.659 733.747 676.347 734.712 676.347C752.793 676.338 766.09 676.33 766.09 676.33C768.17 676.33 770.2 675.95 772.05 675.25C776.67 673.52 779.27 668.54 778.18 663.72ZM665.928 641.942C665.781 640.963 664.939 640.238 663.949 640.238H620.521C619.325 640.238 618.396 641.285 618.535 642.473C619.779 653.189 620.72 661.23 620.945 663.006C621.221 665.176 621.733 667.206 622.284 668.93C623.407 672.443 626.402 675.016 630.03 675.676C631.919 676.02 634.11 676.301 636.311 676.33C638.156 676.354 651.389 676.363 668.75 676.365C669.972 676.365 670.909 675.278 670.729 674.069L665.928 641.942ZM770.669 629.812C768.653 620.678 766.48 610.811 764.469 601.673C764.268 600.756 763.456 600.11 762.518 600.11H721.343C720.092 600.11 719.148 601.244 719.376 602.474L724.579 630.602C724.755 631.55 725.582 632.238 726.546 632.238H768.715C769.993 632.238 770.944 631.06 770.669 629.812ZM717.156 590.474C717.332 591.422 718.158 592.11 719.123 592.11H759.881C761.158 592.11 762.106 590.924 761.833 589.676C759.236 577.848 757.301 568.982 757.02 567.57C755.55 560.26 754.32 559.01 753.08 558.28C749.63 556.27 740.93 556 732.88 556H713.183C711.932 556 710.988 557.134 711.216 558.364L717.156 590.474Z" fill="url(#paint14_linear_1_2)"/>
</g>
<g style="mix-blend-mode:multiply" opacity="0.32" filter="url(#filter14_f_1_2)">
<path fill-rule="evenodd" clip-rule="evenodd" d="M661.892 556.804C661.585 557.214 661.434 557.742 661.517 558.295L666.315 590.405C666.462 591.385 667.303 592.11 668.294 592.11H706.918C708.169 592.11 709.112 590.976 708.885 589.746L708.45 587.396C708.086 587.829 707.54 588.11 706.918 588.11H668.294C667.303 588.11 666.462 587.385 666.315 586.405L661.892 556.804ZM663.76 627.434C663.398 627.918 662.819 628.238 662.156 628.238H619.13C618.114 628.238 617.261 627.484 617.144 626.476C616.194 618.274 615.172 609.422 614.201 601.016C613.957 601.39 613.835 601.849 613.892 602.333C614.952 611.52 616.093 621.396 617.144 630.476C617.261 631.484 618.114 632.238 619.13 632.238H662.156C663.379 632.238 664.315 631.151 664.135 629.942L663.76 627.434ZM674.479 641.042L678.905 670.66C679.052 671.639 679.885 672.364 680.876 672.364C694.354 672.362 709.113 672.358 722.512 672.352C723.131 672.352 723.673 672.073 724.035 671.642L724.469 673.988C724.696 675.217 723.762 676.352 722.512 676.352C709.113 676.358 694.354 676.362 680.876 676.364C679.885 676.364 679.052 675.639 678.905 674.66L674.104 642.533C674.022 641.98 674.173 641.452 674.479 641.042ZM715.873 627.524C715.509 627.957 714.963 628.238 714.341 628.238H674.29C673.299 628.238 672.458 627.513 672.312 626.533L668.483 600.914C668.177 601.324 668.026 601.852 668.108 602.405L672.312 630.533C672.458 631.513 673.299 632.238 674.29 632.238H714.341C715.592 632.238 716.535 631.104 716.308 629.874L715.873 627.524ZM657.764 587.306C657.402 587.791 656.823 588.11 656.16 588.11H614.496C613.479 588.11 612.624 587.346 612.508 586.336C611.863 580.745 611.291 575.788 610.846 571.931C610.346 567.592 610.006 564.647 609.903 563.761C609.74 562.349 609.636 560.948 609.573 559.645C609.514 559.926 609.484 560.216 609.486 560.513C609.501 562.501 609.597 565.113 609.903 567.761C610.006 568.647 610.346 571.592 610.846 575.931C611.291 579.788 611.863 584.745 612.508 590.336C612.624 591.346 613.479 592.11 614.496 592.11H656.16C657.383 592.11 658.319 591.023 658.139 589.814L657.764 587.306ZM727.234 640.952L732.739 670.711C732.915 671.659 733.747 672.347 734.712 672.347C752.793 672.338 766.09 672.33 766.09 672.33C768.17 672.33 770.2 671.95 772.05 671.25C775.309 670.029 777.563 667.191 778.225 663.932C779.193 668.686 776.602 673.545 772.05 675.25C770.2 675.95 768.17 676.33 766.09 676.33C766.09 676.33 752.793 676.338 734.712 676.347C733.747 676.347 732.915 675.659 732.739 674.711L726.799 642.602C726.684 641.984 726.866 641.39 727.234 640.952ZM618.846 641.148C619.934 650.512 620.739 657.381 620.945 659.006C621.221 661.176 621.733 663.206 622.284 664.93C623.407 668.443 626.402 671.016 630.03 671.676C631.919 672.02 634.11 672.301 636.311 672.33C638.156 672.354 651.389 672.363 668.75 672.365C669.412 672.365 669.991 672.045 670.354 671.56L670.729 674.069C670.909 675.278 669.972 676.365 668.75 676.365C651.389 676.363 638.156 676.354 636.311 676.33C634.11 676.301 631.919 676.02 630.03 675.676C626.402 675.016 623.407 672.443 622.284 668.93C621.733 667.206 621.221 665.176 620.945 663.006C620.72 661.23 619.779 653.189 618.535 642.473C618.478 641.987 618.6 641.525 618.846 641.148ZM719.811 600.824L724.579 626.602C724.755 627.55 725.582 628.238 726.546 628.238H768.715C769.301 628.238 769.819 627.99 770.181 627.601C770.345 628.342 770.507 629.079 770.669 629.812C770.944 631.06 769.993 632.238 768.715 632.238H726.546C725.582 632.238 724.755 631.55 724.579 630.602L719.376 602.474C719.262 601.856 719.443 601.262 719.811 600.824ZM719.123 588.11C718.158 588.11 717.332 587.422 717.156 586.474L711.651 556.714C711.283 557.152 711.101 557.746 711.216 558.364L717.156 590.474C717.332 591.422 718.158 592.11 719.123 592.11H759.881C761.158 592.11 762.106 590.924 761.833 589.676C761.669 588.927 761.507 588.19 761.348 587.466C760.987 587.859 760.469 588.11 759.881 588.11H719.123Z" fill="#353639"/>
</g>
<g style="mix-blend-mode:multiply" opacity="0.16" filter="url(#filter15_f_1_2)">
<path d="M106 681.5L117.5 615.5L237 613.5L229 681.5H106Z" fill="url(#paint15_linear_1_2)"/>
</g>
<g opacity="0.5" filter="url(#filter16_f_1_2)">
<path d="M173 652C143.184 652 113 641.695 113 622V617.625C113 605.525 130.123 579 181 579C197.193 579 211.99 582.483 222.664 588.809C234.488 595.815 241 606.183 241 618V619C241 624.173 236.099 632.518 225.15 639.498C216.204 645.201 199.894 652 173 652Z" fill="white"/>
</g>
<g style="mix-blend-mode:multiply" filter="url(#filter17_f_1_2)">
<path d="M173 649C143.184 649 113 638.695 113 619V614.625C113 602.525 130.123 576 181 576C197.193 576 211.99 579.483 222.664 585.809C234.488 592.815 241 603.183 241 615V616C241 621.173 236.099 629.518 225.15 636.498C216.204 642.201 199.894 649 173 649Z" fill="#36373A"/>
</g>
<g filter="url(#filter18_ii_1_2)">
<path d="M173 645C146 645 117 636 117 619V608.625C117 600 131 574 181 574C212 574 237 587 237 609V616C237 623 221 645 173 645Z" fill="url(#paint16_linear_1_2)"/>
</g>
<mask id="mask4_1_2" style="mask-type:alpha" maskUnits="userSpaceOnUse" x="117" y="574" width="120" height="71">
<path d="M173 645C146 645 117 636 117 619V608.625C117 600 131 574 181 574C212 574 237 587 237 609V616C237 623 221 645 173 645Z" fill="white"/>
</mask>
<g mask="url(#mask4_1_2)">
<g filter="url(#filter19_f_1_2)">
<path d="M173 634C146 634 117 625 117 608V597.625C117 589 131 563 181 563C212 563 237 576 237 598V605C237 612 221 634 173 634Z" fill="url(#paint17_linear_1_2)"/>
</g>
<g filter="url(#filter20_f_1_2)">
<path fill-rule="evenodd" clip-rule="evenodd" d="M122 603.208C122 618.792 148.583 627.042 173.333 627.042C217.333 627.042 232 606.875 232 600.458V602.458C232 608.875 217.333 629.042 173.333 629.042C148.583 629.042 122 620.792 122 605.208V603.208Z" fill="url(#paint18_linear_1_2)"/>
</g>
</g>
<g style="mix-blend-mode:multiply" opacity="0.16" filter="url(#filter21_f_1_2)">
<path d="M282 681.5L287.5 615.5L407 613.5L406 681.5H282Z" fill="url(#paint19_linear_1_2)"/>
</g>
<g opacity="0.5" filter="url(#filter22_f_1_2)">
<path d="M344 652C314.663 652 283 639.766 283 620V617.625C283 612.104 286.902 602.825 297.9 594.841C306.598 588.527 322.871 581 351 581C367.193 581 381.99 584.483 392.664 590.809C404.488 597.815 411 608.183 411 620V621C411 630.711 394.129 652 344 652Z" fill="white"/>
</g>
<g style="mix-blend-mode:multiply" filter="url(#filter23_f_1_2)">
<path d="M344 649C314.663 649 283 636.766 283 617V614.625C283 609.104 286.902 599.825 297.9 591.841C306.598 585.527 322.871 578 351 578C367.193 578 381.99 581.483 392.664 587.809C404.488 594.815 411 605.183 411 617V618C411 627.711 394.129 649 344 649Z" fill="#36373A"/>
</g>
<g filter="url(#filter24_ii_1_2)">
<path d="M344 645C317 645 287 634 287 617V606.625C287 598 301 574 351 574C382 574 407 587 407 609V618C407 625 392 645 344 645Z" fill="url(#paint20_linear_1_2)"/>
</g>
<mask id="mask5_1_2" style="mask-type:alpha" maskUnits="userSpaceOnUse" x="287" y="574" width="120" height="71">
<path d="M344 645C317 645 287 634 287 617V606.625C287 598 301 574 351 574C382 574 407 587 407 609V618C407 625 392 645 344 645Z" fill="#36373A"/>
</mask>
<g mask="url(#mask5_1_2)">
<g filter="url(#filter25_f_1_2)">
<path d="M344 634C317 634 287 623 287 606V595.625C287 587 301 563 351 563C382 563 407 576 407 598V607C407 614 392 634 344 634Z" fill="url(#paint21_linear_1_2)"/>
</g>
<g filter="url(#filter26_f_1_2)">
<path fill-rule="evenodd" clip-rule="evenodd" d="M294.222 611.783C303.089 621.883 324.459 628 344.15 628C376.806 628 393.384 618.32 400.165 610.399C395.176 618.366 379.324 630 344.25 630C323.694 630 301.241 623.053 294.222 611.783Z" fill="url(#paint22_linear_1_2)"/>
</g>
</g>
<g filter="url(#filter27_f_1_2)">
<path fill-rule="evenodd" clip-rule="evenodd" d="M244.595 524C165.361 524 148.594 515.033 133.8 507.121C114.982 497.057 100.942 483.017 90.8784 464.199C82.9668 449.405 74 432.638 74 353.405V234.596C74 155.362 82.9668 138.595 90.8784 123.801C100.942 104.983 114.982 90.9434 133.8 80.8794C148.594 72.9673 165.361 64 244.595 64H599.405C678.639 64 695.406 72.9673 710.199 80.8789C729.017 90.9429 743.058 104.983 753.122 123.801C761.033 138.595 770 155.362 770 234.596V353.405C770 432.638 761.033 449.406 753.121 464.199C743.058 483.017 729.018 497.057 710.199 507.122C695.406 515.033 678.639 524 599.405 524H244.595Z" fill="url(#paint23_linear_1_2)"/>
</g>
<g filter="url(#filter28_f_1_2)">
<path fill-rule="evenodd" clip-rule="evenodd" d="M244.596 512C168.368 512 153.01 503.786 139.46 496.54C122.8 487.629 110.37 475.2 101.461 458.54C94.2139 444.99 86 429.632 86 353.405V234.596C86 158.368 94.2139 143.01 101.461 129.461C110.37 112.801 122.799 100.371 139.459 91.4609C153.01 84.2139 168.368 76 244.596 76H599.404C675.632 76 690.99 84.2139 704.54 91.4604C721.2 100.371 733.63 112.8 742.539 129.46C749.786 143.01 758 158.368 758 234.596V353.405C758 429.633 749.786 444.99 742.539 458.54C733.63 475.2 721.2 487.629 704.54 496.54C690.989 503.787 675.631 512 599.404 512H244.596Z" fill="url(#paint24_linear_1_2)"/>
</g>
<path fill-rule="evenodd" clip-rule="evenodd" d="M244.595 508C169.371 508 154.482 500.038 141.346 493.012C125.406 484.487 113.513 472.594 104.988 456.653C97.9626 443.518 90 428.629 90 353.405V234.596C90 159.371 97.9626 144.482 104.988 131.347C113.513 115.406 125.406 103.513 141.346 94.9883C154.483 87.9624 169.371 80 244.595 80H599.405C674.629 80 689.517 87.9624 702.653 94.9878C718.594 103.513 730.487 115.406 739.012 131.347C746.037 144.482 754 159.371 754 234.596V353.405C754 428.629 746.037 443.518 739.012 456.654C730.487 472.594 718.594 484.487 702.653 493.013C689.518 500.038 674.629 508 599.405 508H244.595Z" fill="url(#paint25_linear_1_2)"/>
<mask id="mask6_1_2" style="mask-type:alpha" maskUnits="userSpaceOnUse" x="90" y="80" width="664" height="428">
<path fill-rule="evenodd" clip-rule="evenodd" d="M244.595 508C169.371 508 154.482 500.038 141.346 493.012C125.406 484.487 113.513 472.594 104.988 456.653C97.9626 443.518 90 428.629 90 353.405V234.596C90 159.371 97.9626 144.482 104.988 131.347C113.513 115.406 125.406 103.513 141.346 94.9883C154.483 87.9624 169.371 80 244.595 80H599.405C674.629 80 689.517 87.9624 702.653 94.9878C718.594 103.513 730.487 115.406 739.012 131.347C746.037 144.482 754 159.371 754 234.596V353.405C754 428.629 746.037 443.518 739.012 456.654C730.487 472.594 718.594 484.487 702.653 493.013C689.518 500.038 674.629 508 599.405 508H244.595Z" fill="black"/>
</mask>
<g mask="url(#mask6_1_2)">
<g opacity="0.16" filter="url(#filter29_f_1_2)">
<ellipse cx="422" cy="295" rx="233" ry="150" fill="url(#paint26_linear_1_2)"/>
</g>
<g opacity="0.32" filter="url(#filter30_f_1_2)">
<path fill-rule="evenodd" clip-rule="evenodd" d="M282 254V154H382V254H282ZM302 234H362V174H302V234ZM322 194H342V214H322V194ZM462 154V254H562V154H462ZM542 234H482V174H542V234ZM502 194H522V214H502V194ZM422 194H402V214H422V234H402V254H422V274H402V294H382V274H362V294H342V274H322V294H302V274H282V294H302V314H322V294H342V314H362V294H382V314H402V334H422V354H402V374H422V394H402V414H422V434H442V414H422V394H442V374H422V354H442V334H422V314H442V294H462V314H482V294H502V314H522V294H542V314H562V294H542V274H522V294H502V274H482V294H462V274H442V254H422V234H442V214H422V194ZM422 174V194H442V174H422ZM422 174V154H402V174H422ZM442 274V294H422V274H442ZM422 294V314H402V294H422ZM382 334H282V434H382V334ZM302 414V354H362V414H302ZM342 374V394H322V374H342ZM562 334H462V434H562V334ZM482 414V354H542V414H482ZM522 374V394H502V374H522Z" fill="url(#paint27_linear_1_2)"/>
</g>
<g opacity="0.32" filter="url(#filter31_f_1_2)">
<path fill-rule="evenodd" clip-rule="evenodd" d="M282 254V154H382V254H282ZM302 234H362V174H302V234ZM322 194H342V214H322V194ZM462 154V254H562V154H462ZM542 234H482V174H542V234ZM502 194H522V214H502V194ZM422 194H402V214H422V234H402V254H422V274H402V294H382V274H362V294H342V274H322V294H302V274H282V294H302V314H322V294H342V314H362V294H382V314H402V334H422V354H402V374H422V394H402V414H422V434H442V414H422V394H442V374H422V354H442V334H422V314H442V294H462V314H482V294H502V314H522V294H542V314H562V294H542V274H522V294H502V274H482V294H462V274H442V254H422V234H442V214H422V194ZM422 174V194H442V174H422ZM422 174V154H402V174H422ZM442 274V294H422V274H442ZM422 294V314H402V294H422ZM382 334H282V434H382V334ZM302 414V354H362V414H302ZM342 374V394H322V374H342ZM562 334H462V434H562V334ZM482 414V354H542V414H482ZM522 374V394H502V374H522Z" fill="url(#paint28_linear_1_2)"/>
</g>
<g opacity="0.32" filter="url(#filter32_f_1_2)">
<path fill-rule="evenodd" clip-rule="evenodd" d="M282 254V154H382V254H282ZM302 234H362V174H302V234ZM322 194H342V214H322V194ZM462 154V254H562V154H462ZM542 234H482V174H542V234ZM502 194H522V214H502V194ZM422 194H402V214H422V234H402V254H422V274H402V294H382V274H362V294H342V274H322V294H302V274H282V294H302V314H322V294H342V314H362V294H382V314H402V334H422V354H402V374H422V394H402V414H422V434H442V414H422V394H442V374H422V354H442V334H422V314H442V294H462V314H482V294H502V314H522V294H542V314H562V294H542V274H522V294H502V274H482V294H462V274H442V254H422V234H442V214H422V194ZM422 174V194H442V174H422ZM422 174V154H402V174H422ZM442 274V294H422V274H442ZM422 294V314H402V294H422ZM382 334H282V434H382V334ZM302 414V354H362V414H302ZM342 374V394H322V374H342ZM562 334H462V434H562V334ZM482 414V354H542V414H482ZM522 374V394H502V374H522Z" fill="url(#paint29_linear_1_2)"/>
</g>
<g filter="url(#filter33_ddiii_1_2)">
<path fill-rule="evenodd" clip-rule="evenodd" d="M282 254V154H382V254H282ZM302 234H362V174H302V234ZM322 194H342V214H322V194ZM462 154V254H562V154H462ZM542 234H482V174H542V234ZM502 194H522V214H502V194ZM422 194H402V214H422V234H402V254H422V274H402V294H382V274H362V294H342V274H322V294H302V274H282V294H302V314H322V294H342V314H362V294H382V314H402V334H422V354H402V374H422V394H402V414H422V434H442V414H422V394H442V374H422V354H442V334H422V314H442V294H462V314H482V294H502V314H522V294H542V314H562V294H542V274H522V294H502V274H482V294H462V274H442V254H422V234H442V214H422V194ZM422 174V194H442V174H422ZM422 174V154H402V174H422ZM442 274V294H422V274H442ZM422 294V314H402V294H422ZM382 334H282V434H382V334ZM302 414V354H362V414H302ZM342 374V394H322V374H342ZM562 334H462V434H562V334ZM482 414V354H542V414H482ZM522 374V394H502V374H522Z" fill="url(#paint30_linear_1_2)"/>
</g>
<g opacity="0.5" filter="url(#filter34_f_1_2)">
<path fill-rule="evenodd" clip-rule="evenodd" d="M108.74 525.653C124.82 534.253 143.045 544 229.169 544H614.831C700.955 544 719.18 534.253 735.26 525.654C755.715 514.714 770.976 499.453 781.914 478.999C790.514 462.919 800.261 444.694 800.261 358.57V229.43C800.261 143.306 790.514 125.081 781.915 109.001C770.976 88.5466 755.714 73.2857 735.259 62.3466C719.18 53.7471 700.955 44 614.831 44H229.169C143.045 44 124.819 53.747 108.739 62.3472C88.285 73.2863 73.0243 88.5466 62.0852 109.001C53.4856 125.081 43.7391 143.306 43.7391 229.43V358.57C43.7391 444.694 53.4856 462.919 62.0852 478.999C73.0243 499.453 88.2852 514.714 108.739 525.653L108.74 525.653ZM162.48 502.026C174.627 508.523 188.395 515.886 257.954 515.886H586.046C655.605 515.886 669.373 508.523 681.52 502.027C696.26 494.143 707.258 483.146 715.141 468.406C721.637 456.259 729 442.491 729 372.932V263.069C729 193.509 721.637 179.741 715.141 167.595C707.258 152.854 696.261 141.857 681.52 133.974C669.373 127.477 655.605 120.114 586.046 120.114H257.954C188.395 120.114 174.627 127.477 162.479 133.974C147.739 141.857 136.742 152.854 128.859 167.595L128.859 167.595C122.363 179.742 115 193.509 115 263.069V372.932C115 442.491 122.363 456.259 128.859 468.405L128.859 468.405C136.742 483.146 147.74 494.143 162.48 502.026Z" fill="black"/>
</g>
<g opacity="0.5" filter="url(#filter35_f_1_2)">
<path fill-rule="evenodd" clip-rule="evenodd" d="M743.848 478.725C749.249 465.619 754 443.513 754 385.405V266.596C754 191.371 746.037 176.482 739.012 163.347C730.487 147.406 718.594 135.513 702.653 126.988C689.517 119.962 674.629 112 599.405 112H244.595C169.371 112 154.483 119.962 141.346 126.988C125.406 135.513 113.513 147.406 104.988 163.347L104.987 163.347C97.9625 176.483 90 191.372 90 266.596V385.405C90 443.513 94.7514 465.619 100.152 478.725C96.7455 474.236 93.6601 469.4 90.8784 464.199C82.9668 449.405 74 432.638 74 353.405V234.596C74 155.362 82.9668 138.595 90.8784 123.801C100.942 104.983 114.982 90.9434 133.8 80.8794C148.594 72.9673 165.361 64 244.595 64H599.405C678.639 64 695.406 72.9673 710.199 80.8789C729.017 90.9429 743.058 104.983 753.122 123.801C761.033 138.595 770 155.362 770 234.596V353.405C770 432.638 761.033 449.406 753.121 464.199C750.34 469.4 747.254 474.237 743.848 478.725Z" fill="black"/>
</g>
<g opacity="0.5" filter="url(#filter36_f_1_2)">
<path fill-rule="evenodd" clip-rule="evenodd" d="M133.8 507.121C146.529 513.928 160.718 521.517 214.896 523.503C164.99 521.657 152.533 514.995 141.346 509.012C125.406 500.487 113.513 488.594 104.988 472.653L104.987 472.653C97.9625 459.517 90 444.628 90 369.405V250.596C90 175.372 97.9625 160.483 104.987 147.347L104.988 147.347C113.513 131.406 125.406 119.513 141.346 110.988C154.483 103.962 169.371 96 244.595 96H599.405C674.629 96 689.517 103.962 702.653 110.988C718.594 119.513 730.487 131.406 739.012 147.347C746.037 160.482 754 175.371 754 250.596V369.405C754 444.629 746.037 459.518 739.012 472.654C730.487 488.594 718.594 500.487 702.653 509.013C691.462 514.998 678.997 521.664 629.03 523.506C683.269 521.524 697.465 513.932 710.199 507.122C729.018 497.057 743.058 483.017 753.121 464.199C761.033 449.406 770 432.638 770 353.405V234.596C770 155.362 761.033 138.595 753.122 123.801C743.058 104.983 729.017 90.9429 710.199 80.8789C695.406 72.9673 678.639 64 599.405 64H244.595C165.361 64 148.594 72.9673 133.8 80.8794C114.982 90.9434 100.942 104.983 90.8784 123.801C82.9668 138.595 74 155.362 74 234.596V353.405C74 432.638 82.9668 449.405 90.8784 464.199C100.942 483.017 114.982 497.057 133.8 507.121Z" fill="black"/>
</g>
<g style="mix-blend-mode:overlay" opacity="0.48">
<path fill-rule="evenodd" clip-rule="evenodd" d="M244.595 508C169.371 508 154.482 500.038 141.346 493.012C125.406 484.487 113.513 472.594 104.988 456.653C97.9626 443.518 90 428.629 90 353.405V234.596C90 159.371 97.9626 144.482 104.988 131.347C113.513 115.406 125.406 103.513 141.346 94.9883C154.483 87.9624 169.371 80 244.595 80H599.405C674.629 80 689.517 87.9624 702.653 94.9878C718.594 103.513 730.487 115.406 739.012 131.347C746.037 144.482 754 159.371 754 234.596V353.405C754 428.629 746.037 443.518 739.012 456.654C730.487 472.594 718.594 484.487 702.653 493.013C689.518 500.038 674.629 508 599.405 508H244.595Z" fill="url(#paint31_linear_1_2)"/>
</g>
<g style="mix-blend-mode:overlay" opacity="0.24" filter="url(#filter37_f_1_2)">
<path d="M903 151C621.5 160 106 340 -71.5 556.5V-29.5H903V151Z" fill="url(#paint32_linear_1_2)"/>
</g>
</g>
<defs>
<filter id="filter0_d_1_2" x="0" y="0" width="844" height="844" filterUnits="userSpaceOnUse" color-interpolation-filters="sRGB">
<feFlood flood-opacity="0" result="BackgroundImageFix"/>
<feColorMatrix in="SourceAlpha" type="matrix" values="0 0 0 0 0 0 0 0 0 0 0 0 0 0 0 0 0 0 127 0" result="hardAlpha"/>
<feOffset dy="10"/>
<feGaussianBlur stdDeviation="5"/>
<feComposite in2="hardAlpha" operator="out"/>
<feColorMatrix type="matrix" values="0 0 0 0 0 0 0 0 0 0 0 0 0 0 0 0 0 0 0.3 0"/>
<feBlend mode="normal" in2="BackgroundImageFix" result="effect1_dropShadow_1_2"/>
<feBlend mode="normal" in="SourceGraphic" in2="effect1_dropShadow_1_2" result="shape"/>
</filter>
<filter id="filter1_f_1_2" x="-122" y="-132" width="1088" height="1088" filterUnits="userSpaceOnUse" color-interpolation-filters="sRGB">
<feFlood flood-opacity="0" result="BackgroundImageFix"/>
<feBlend mode="normal" in="SourceGraphic" in2="BackgroundImageFix" result="shape"/>
<feGaussianBlur stdDeviation="16" result="effect1_foregroundBlur_1_2"/>
</filter>
<filter id="filter2_f_1_2" x="-94" y="-104" width="1032" height="1032" filterUnits="userSpaceOnUse" color-interpolation-filters="sRGB">
<feFlood flood-opacity="0" result="BackgroundImageFix"/>
<feBlend mode="normal" in="SourceGraphic" in2="BackgroundImageFix" result="shape"/>
<feGaussianBlur stdDeviation="2" result="effect1_foregroundBlur_1_2"/>
</filter>
<filter id="filter3_f_1_2" x="2" y="573.405" width="840" height="258.595" filterUnits="userSpaceOnUse" color-interpolation-filters="sRGB">
<feFlood flood-opacity="0" result="BackgroundImageFix"/>
<feBlend mode="normal" in="SourceGraphic" in2="BackgroundImageFix" result="shape"/>
<feGaussianBlur stdDeviation="4" result="effect1_foregroundBlur_1_2"/>
</filter>
<filter id="filter4_f_1_2" x="-148.24" y="-168.24" width="1140.48" height="926.48" filterUnits="userSpaceOnUse" color-interpolation-filters="sRGB">
<feFlood flood-opacity="0" result="BackgroundImageFix"/>
<feBlend mode="normal" in="SourceGraphic" in2="BackgroundImageFix" result="shape"/>
<feGaussianBlur stdDeviation="101.12" result="effect1_foregroundBlur_1_2"/>
</filter>
<filter id="filter5_f_1_2" x="46.1699" y="582" width="751.66" height="274" filterUnits="userSpaceOnUse" color-interpolation-filters="sRGB">
<feFlood flood-opacity="0" result="BackgroundImageFix"/>
<feBlend mode="normal" in="SourceGraphic" in2="BackgroundImageFix" result="shape"/>
<feGaussianBlur stdDeviation="4" result="effect1_foregroundBlur_1_2"/>
</filter>
<filter id="filter6_f_1_2" x="38.1699" y="558" width="767.66" height="322" filterUnits="userSpaceOnUse" color-interpolation-filters="sRGB">
<feFlood flood-opacity="0" result="BackgroundImageFix"/>
<feBlend mode="normal" in="SourceGraphic" in2="BackgroundImageFix" result="shape"/>
<feGaussianBlur stdDeviation="16" result="effect1_foregroundBlur_1_2"/>
</filter>
<filter id="filter7_f_1_2" x="38.1699" y="526" width="767.66" height="386" filterUnits="userSpaceOnUse" color-interpolation-filters="sRGB">
<feFlood flood-opacity="0" result="BackgroundImageFix"/>
<feBlend mode="normal" in="SourceGraphic" in2="BackgroundImageFix" result="shape"/>
<feGaussianBlur stdDeviation="32" result="effect1_foregroundBlur_1_2"/>
</filter>
<filter id="filter8_f_1_2" x="70.1699" y="526" width="703.66" height="386" filterUnits="userSpaceOnUse" color-interpolation-filters="sRGB">
<feFlood flood-opacity="0" result="BackgroundImageFix"/>
<feBlend mode="normal" in="SourceGraphic" in2="BackgroundImageFix" result="shape"/>
<feGaussianBlur stdDeviation="32" result="effect1_foregroundBlur_1_2"/>
</filter>
<filter id="filter9_i_1_2" x="57" y="544" width="730" height="210" filterUnits="userSpaceOnUse" color-interpolation-filters="sRGB">
<feFlood flood-opacity="0" result="BackgroundImageFix"/>
<feBlend mode="normal" in="SourceGraphic" in2="BackgroundImageFix" result="shape"/>
<feColorMatrix in="SourceAlpha" type="matrix" values="0 0 0 0 0 0 0 0 0 0 0 0 0 0 0 0 0 0 127 0" result="hardAlpha"/>
<feOffset dy="-4"/>
<feGaussianBlur stdDeviation="2"/>
<feComposite in2="hardAlpha" operator="arithmetic" k2="-1" k3="1"/>
<feColorMatrix type="matrix" values="0 0 0 0 0.862745 0 0 0 0 0.866667 0 0 0 0 0.901961 0 0 0 0.32 0"/>
<feBlend mode="normal" in2="shape" result="effect1_innerShadow_1_2"/>
</filter>
<filter id="filter10_f_1_2" x="48.9979" y="540" width="746.003" height="152.33" filterUnits="userSpaceOnUse" color-interpolation-filters="sRGB">
<feFlood flood-opacity="0" result="BackgroundImageFix"/>
<feBlend mode="normal" in="SourceGraphic" in2="BackgroundImageFix" result="shape"/>
<feGaussianBlur stdDeviation="4" result="effect1_foregroundBlur_1_2"/>
</filter>
<filter id="filter11_f_1_2" x="53.3313" y="663.855" width="737.336" height="24.1417" filterUnits="userSpaceOnUse" color-interpolation-filters="sRGB">
<feFlood flood-opacity="0" result="BackgroundImageFix"/>
<feBlend mode="normal" in="SourceGraphic" in2="BackgroundImageFix" result="shape"/>
<feGaussianBlur stdDeviation="1.83333" result="effect1_foregroundBlur_1_2"/>
</filter>
<filter id="filter12_f_1_2" x="576.648" y="545.792" width="37.893" height="212.464" filterUnits="userSpaceOnUse" color-interpolation-filters="sRGB">
<feFlood flood-opacity="0" result="BackgroundImageFix"/>
<feBlend mode="normal" in="SourceGraphic" in2="BackgroundImageFix" result="shape"/>
<feGaussianBlur stdDeviation="1" result="effect1_foregroundBlur_1_2"/>
</filter>
<filter id="filter13_diii_1_2" x="607.486" y="552" width="172.941" height="128.365" filterUnits="userSpaceOnUse" color-interpolation-filters="sRGB">
<feFlood flood-opacity="0" result="BackgroundImageFix"/>
<feColorMatrix in="SourceAlpha" type="matrix" values="0 0 0 0 0 0 0 0 0 0 0 0 0 0 0 0 0 0 127 0" result="hardAlpha"/>
<feOffset dy="2"/>
<feGaussianBlur stdDeviation="1"/>
<feComposite in2="hardAlpha" operator="out"/>
<feColorMatrix type="matrix" values="0 0 0 0 1 0 0 0 0 1 0 0 0 0 1 0 0 0 1 0"/>
<feBlend mode="normal" in2="BackgroundImageFix" result="effect1_dropShadow_1_2"/>
<feBlend mode="normal" in="SourceGraphic" in2="effect1_dropShadow_1_2" result="shape"/>
<feColorMatrix in="SourceAlpha" type="matrix" values="0 0 0 0 0 0 0 0 0 0 0 0 0 0 0 0 0 0 127 0" result="hardAlpha"/>
<feOffset dy="-4"/>
<feGaussianBlur stdDeviation="2"/>
<feComposite in2="hardAlpha" operator="arithmetic" k2="-1" k3="1"/>
<feColorMatrix type="matrix" values="0 0 0 0 0 0 0 0 0 0 0 0 0 0 0 0 0 0 0.08 0"/>
<feBlend mode="normal" in2="shape" result="effect2_innerShadow_1_2"/>
<feColorMatrix in="SourceAlpha" type="matrix" values="0 0 0 0 0 0 0 0 0 0 0 0 0 0 0 0 0 0 127 0" result="hardAlpha"/>
<feOffset dy="-2"/>
<feGaussianBlur stdDeviation="1"/>
<feComposite in2="hardAlpha" operator="arithmetic" k2="-1" k3="1"/>
<feColorMatrix type="matrix" values="0 0 0 0 0 0 0 0 0 0 0 0 0 0 0 0 0 0 0.16 0"/>
<feBlend mode="normal" in2="effect2_innerShadow_1_2" result="effect3_innerShadow_1_2"/>
<feColorMatrix in="SourceAlpha" type="matrix" values="0 0 0 0 0 0 0 0 0 0 0 0 0 0 0 0 0 0 127 0" result="hardAlpha"/>
<feOffset dy="2"/>
<feGaussianBlur stdDeviation="1"/>
<feComposite in2="hardAlpha" operator="arithmetic" k2="-1" k3="1"/>
<feColorMatrix type="matrix" values="0 0 0 0 1 0 0 0 0 1 0 0 0 0 1 0 0 0 0.08 0"/>
<feBlend mode="normal" in2="effect3_innerShadow_1_2" result="effect4_innerShadow_1_2"/>
</filter>
<filter id="filter14_f_1_2" x="607.486" y="554.714" width="172.941" height="123.651" filterUnits="userSpaceOnUse" color-interpolation-filters="sRGB">
<feFlood flood-opacity="0" result="BackgroundImageFix"/>
<feBlend mode="normal" in="SourceGraphic" in2="BackgroundImageFix" result="shape"/>
<feGaussianBlur stdDeviation="1" result="effect1_foregroundBlur_1_2"/>
</filter>
<filter id="filter15_f_1_2" x="82" y="589.5" width="179" height="116" filterUnits="userSpaceOnUse" color-interpolation-filters="sRGB">
<feFlood flood-opacity="0" result="BackgroundImageFix"/>
<feBlend mode="normal" in="SourceGraphic" in2="BackgroundImageFix" result="shape"/>
<feGaussianBlur stdDeviation="12" result="effect1_foregroundBlur_1_2"/>
</filter>
<filter id="filter16_f_1_2" x="111" y="577" width="132" height="77" filterUnits="userSpaceOnUse" color-interpolation-filters="sRGB">
<feFlood flood-opacity="0" result="BackgroundImageFix"/>
<feBlend mode="normal" in="SourceGraphic" in2="BackgroundImageFix" result="shape"/>
<feGaussianBlur stdDeviation="1" result="effect1_foregroundBlur_1_2"/>
</filter>
<filter id="filter17_f_1_2" x="112" y="575" width="130" height="75" filterUnits="userSpaceOnUse" color-interpolation-filters="sRGB">
<feFlood flood-opacity="0" result="BackgroundImageFix"/>
<feBlend mode="normal" in="SourceGraphic" in2="BackgroundImageFix" result="shape"/>
<feGaussianBlur stdDeviation="0.5" result="effect1_foregroundBlur_1_2"/>
</filter>
<filter id="filter18_ii_1_2" x="117" y="572" width="120" height="73" filterUnits="userSpaceOnUse" color-interpolation-filters="sRGB">
<feFlood flood-opacity="0" result="BackgroundImageFix"/>
<feBlend mode="normal" in="SourceGraphic" in2="BackgroundImageFix" result="shape"/>
<feColorMatrix in="SourceAlpha" type="matrix" values="0 0 0 0 0 0 0 0 0 0 0 0 0 0 0 0 0 0 127 0" result="hardAlpha"/>
<feOffset dy="-2"/>
<feGaussianBlur stdDeviation="2"/>
<feComposite in2="hardAlpha" operator="arithmetic" k2="-1" k3="1"/>
<feColorMatrix type="matrix" values="0 0 0 0 0.215686 0 0 0 0 0.219608 0 0 0 0 0.231373 0 0 0 1 0"/>
<feBlend mode="normal" in2="shape" result="effect1_innerShadow_1_2"/>
<feColorMatrix in="SourceAlpha" type="matrix" values="0 0 0 0 0 0 0 0 0 0 0 0 0 0 0 0 0 0 127 0" result="hardAlpha"/>
<feOffset dy="-1"/>
<feGaussianBlur stdDeviation="1"/>
<feComposite in2="hardAlpha" operator="arithmetic" k2="-1" k3="1"/>
<feColorMatrix type="matrix" values="0 0 0 0 0.215686 0 0 0 0 0.219608 0 0 0 0 0.231373 0 0 0 1 0"/>
<feBlend mode="normal" in2="effect1_innerShadow_1_2" result="effect2_innerShadow_1_2"/>
</filter>
<filter id="filter19_f_1_2" x="113" y="559" width="128" height="79" filterUnits="userSpaceOnUse" color-interpolation-filters="sRGB">
<feFlood flood-opacity="0" result="BackgroundImageFix"/>
<feBlend mode="normal" in="SourceGraphic" in2="BackgroundImageFix" result="shape"/>
<feGaussianBlur stdDeviation="2" result="effect1_foregroundBlur_1_2"/>
</filter>
<filter id="filter20_f_1_2" x="118.333" y="596.792" width="117.333" height="35.9167" filterUnits="userSpaceOnUse" color-interpolation-filters="sRGB">
<feFlood flood-opacity="0" result="BackgroundImageFix"/>
<feBlend mode="normal" in="SourceGraphic" in2="BackgroundImageFix" result="shape"/>
<feGaussianBlur stdDeviation="1.83333" result="effect1_foregroundBlur_1_2"/>
</filter>
<filter id="filter21_f_1_2" x="258" y="589.5" width="173" height="116" filterUnits="userSpaceOnUse" color-interpolation-filters="sRGB">
<feFlood flood-opacity="0" result="BackgroundImageFix"/>
<feBlend mode="normal" in="SourceGraphic" in2="BackgroundImageFix" result="shape"/>
<feGaussianBlur stdDeviation="12" result="effect1_foregroundBlur_1_2"/>
</filter>
<filter id="filter22_f_1_2" x="281" y="579" width="132" height="75" filterUnits="userSpaceOnUse" color-interpolation-filters="sRGB">
<feFlood flood-opacity="0" result="BackgroundImageFix"/>
<feBlend mode="normal" in="SourceGraphic" in2="BackgroundImageFix" result="shape"/>
<feGaussianBlur stdDeviation="1" result="effect1_foregroundBlur_1_2"/>
</filter>
<filter id="filter23_f_1_2" x="282" y="577" width="130" height="73" filterUnits="userSpaceOnUse" color-interpolation-filters="sRGB">
<feFlood flood-opacity="0" result="BackgroundImageFix"/>
<feBlend mode="normal" in="SourceGraphic" in2="BackgroundImageFix" result="shape"/>
<feGaussianBlur stdDeviation="0.5" result="effect1_foregroundBlur_1_2"/>
</filter>
<filter id="filter24_ii_1_2" x="287" y="572" width="120" height="73" filterUnits="userSpaceOnUse" color-interpolation-filters="sRGB">
<feFlood flood-opacity="0" result="BackgroundImageFix"/>
<feBlend mode="normal" in="SourceGraphic" in2="BackgroundImageFix" result="shape"/>
<feColorMatrix in="SourceAlpha" type="matrix" values="0 0 0 0 0 0 0 0 0 0 0 0 0 0 0 0 0 0 127 0" result="hardAlpha"/>
<feOffset dy="-2"/>
<feGaussianBlur stdDeviation="2"/>
<feComposite in2="hardAlpha" operator="arithmetic" k2="-1" k3="1"/>
<feColorMatrix type="matrix" values="0 0 0 0 0.215686 0 0 0 0 0.219608 0 0 0 0 0.231373 0 0 0 1 0"/>
<feBlend mode="normal" in2="shape" result="effect1_innerShadow_1_2"/>
<feColorMatrix in="SourceAlpha" type="matrix" values="0 0 0 0 0 0 0 0 0 0 0 0 0 0 0 0 0 0 127 0" result="hardAlpha"/>
<feOffset dy="-1"/>
<feGaussianBlur stdDeviation="1"/>
<feComposite in2="hardAlpha" operator="arithmetic" k2="-1" k3="1"/>
<feColorMatrix type="matrix" values="0 0 0 0 0.215686 0 0 0 0 0.219608 0 0 0 0 0.231373 0 0 0 1 0"/>
<feBlend mode="normal" in2="effect1_innerShadow_1_2" result="effect2_innerShadow_1_2"/>
</filter>
<filter id="filter25_f_1_2" x="283" y="559" width="128" height="79" filterUnits="userSpaceOnUse" color-interpolation-filters="sRGB">
<feFlood flood-opacity="0" result="BackgroundImageFix"/>
<feBlend mode="normal" in="SourceGraphic" in2="BackgroundImageFix" result="shape"/>
<feGaussianBlur stdDeviation="2" result="effect1_foregroundBlur_1_2"/>
</filter>
<filter id="filter26_f_1_2" x="290.555" y="606.732" width="113.276" height="26.9342" filterUnits="userSpaceOnUse" color-interpolation-filters="sRGB">
<feFlood flood-opacity="0" result="BackgroundImageFix"/>
<feBlend mode="normal" in="SourceGraphic" in2="BackgroundImageFix" result="shape"/>
<feGaussianBlur stdDeviation="1.83333" result="effect1_foregroundBlur_1_2"/>
</filter>
<filter id="filter27_f_1_2" x="70" y="60" width="704" height="468" filterUnits="userSpaceOnUse" color-interpolation-filters="sRGB">
<feFlood flood-opacity="0" result="BackgroundImageFix"/>
<feBlend mode="normal" in="SourceGraphic" in2="BackgroundImageFix" result="shape"/>
<feGaussianBlur stdDeviation="2" result="effect1_foregroundBlur_1_2"/>
</filter>
<filter id="filter28_f_1_2" x="82" y="72" width="680" height="444" filterUnits="userSpaceOnUse" color-interpolation-filters="sRGB">
<feFlood flood-opacity="0" result="BackgroundImageFix"/>
<feBlend mode="normal" in="SourceGraphic" in2="BackgroundImageFix" result="shape"/>
<feGaussianBlur stdDeviation="2" result="effect1_foregroundBlur_1_2"/>
</filter>
<filter id="filter29_f_1_2" x="61" y="17" width="722" height="556" filterUnits="userSpaceOnUse" color-interpolation-filters="sRGB">
<feFlood flood-opacity="0" result="BackgroundImageFix"/>
<feBlend mode="normal" in="SourceGraphic" in2="BackgroundImageFix" result="shape"/>
<feGaussianBlur stdDeviation="64" result="effect1_foregroundBlur_1_2"/>
</filter>
<filter id="filter30_f_1_2" x="258" y="130" width="328" height="328" filterUnits="userSpaceOnUse" color-interpolation-filters="sRGB">
<feFlood flood-opacity="0" result="BackgroundImageFix"/>
<feBlend mode="normal" in="SourceGraphic" in2="BackgroundImageFix" result="shape"/>
<feGaussianBlur stdDeviation="12" result="effect1_foregroundBlur_1_2"/>
</filter>
<filter id="filter31_f_1_2" x="270" y="142" width="304" height="304" filterUnits="userSpaceOnUse" color-interpolation-filters="sRGB">
<feFlood flood-opacity="0" result="BackgroundImageFix"/>
<feBlend mode="normal" in="SourceGraphic" in2="BackgroundImageFix" result="shape"/>
<feGaussianBlur stdDeviation="6" result="effect1_foregroundBlur_1_2"/>
</filter>
<filter id="filter32_f_1_2" x="276" y="148" width="292" height="292" filterUnits="userSpaceOnUse" color-interpolation-filters="sRGB">
<feFlood flood-opacity="0" result="BackgroundImageFix"/>
<feBlend mode="normal" in="SourceGraphic" in2="BackgroundImageFix" result="shape"/>
<feGaussianBlur stdDeviation="3" result="effect1_foregroundBlur_1_2"/>
</filter>
<filter id="filter33_ddiii_1_2" x="266" y="140" width="312" height="312" filterUnits="userSpaceOnUse" color-interpolation-filters="sRGB">
<feFlood flood-opacity="0" result="BackgroundImageFix"/>
<feColorMatrix in="SourceAlpha" type="matrix" values="0 0 0 0 0 0 0 0 0 0 0 0 0 0 0 0 0 0 127 0" result="hardAlpha"/>
<feOffset dy="2"/>
<feGaussianBlur stdDeviation="8"/>
<feComposite in2="hardAlpha" operator="out"/>
<feColorMatrix type="matrix" values="0 0 0 0 0 0 0 0 0 0 0 0 0 0 0 0 0 0 0.12 0"/>
<feBlend mode="normal" in2="BackgroundImageFix" result="effect1_dropShadow_1_2"/>
<feColorMatrix in="SourceAlpha" type="matrix" values="0 0 0 0 0 0 0 0 0 0 0 0 0 0 0 0 0 0 127 0" result="hardAlpha"/>
<feOffset dy="2"/>
<feGaussianBlur stdDeviation="4"/>
<feComposite in2="hardAlpha" operator="out"/>
<feColorMatrix type="matrix" values="0 0 0 0 0 0 0 0 0 0 0 0 0 0 0 0 0 0 0.24 0"/>
<feBlend mode="normal" in2="effect1_dropShadow_1_2" result="effect2_dropShadow_1_2"/>
<feBlend mode="normal" in="SourceGraphic" in2="effect2_dropShadow_1_2" result="shape"/>
<feColorMatrix in="SourceAlpha" type="matrix" values="0 0 0 0 0 0 0 0 0 0 0 0 0 0 0 0 0 0 127 0" result="hardAlpha"/>
<feOffset/>
<feGaussianBlur stdDeviation="8"/>
<feComposite in2="hardAlpha" operator="arithmetic" k2="-1" k3="1"/>
<feColorMatrix type="matrix" values="0 0 0 0 1 0 0 0 0 1 0 0 0 0 1 0 0 0 0.12 0"/>
<feBlend mode="normal" in2="shape" result="effect3_innerShadow_1_2"/>
<feColorMatrix in="SourceAlpha" type="matrix" values="0 0 0 0 0 0 0 0 0 0 0 0 0 0 0 0 0 0 127 0" result="hardAlpha"/>
<feOffset/>
<feGaussianBlur stdDeviation="4"/>
<feComposite in2="hardAlpha" operator="arithmetic" k2="-1" k3="1"/>
<feColorMatrix type="matrix" values="0 0 0 0 1 0 0 0 0 1 0 0 0 0 1 0 0 0 0.32 0"/>
<feBlend mode="normal" in2="effect3_innerShadow_1_2" result="effect4_innerShadow_1_2"/>
<feColorMatrix in="SourceAlpha" type="matrix" values="0 0 0 0 0 0 0 0 0 0 0 0 0 0 0 0 0 0 127 0" result="hardAlpha"/>
<feOffset/>
<feGaussianBlur stdDeviation="2"/>
<feComposite in2="hardAlpha" operator="arithmetic" k2="-1" k3="1"/>
<feColorMatrix type="matrix" values="0 0 0 0 1 0 0 0 0 1 0 0 0 0 1 0 0 0 0.72 0"/>
<feBlend mode="normal" in2="effect4_innerShadow_1_2" result="effect5_innerShadow_1_2"/>
</filter>
<filter id="filter34_f_1_2" x="-52.2609" y="-52" width="948.522" height="692" filterUnits="userSpaceOnUse" color-interpolation-filters="sRGB">
<feFlood flood-opacity="0" result="BackgroundImageFix"/>
<feBlend mode="normal" in="SourceGraphic" in2="BackgroundImageFix" result="shape"/>
<feGaussianBlur stdDeviation="48" result="effect1_foregroundBlur_1_2"/>
</filter>
<filter id="filter35_f_1_2" x="42" y="32" width="760" height="478.725" filterUnits="userSpaceOnUse" color-interpolation-filters="sRGB">
<feFlood flood-opacity="0" result="BackgroundImageFix"/>
<feBlend mode="normal" in="SourceGraphic" in2="BackgroundImageFix" result="shape"/>
<feGaussianBlur stdDeviation="16" result="effect1_foregroundBlur_1_2"/>
</filter>
<filter id="filter36_f_1_2" x="58" y="48" width="728" height="491.506" filterUnits="userSpaceOnUse" color-interpolation-filters="sRGB">
<feFlood flood-opacity="0" result="BackgroundImageFix"/>
<feBlend mode="normal" in="SourceGraphic" in2="BackgroundImageFix" result="shape"/>
<feGaussianBlur stdDeviation="8" result="effect1_foregroundBlur_1_2"/>
</filter>
<filter id="filter37_f_1_2" x="-75.5" y="-33.5" width="982.5" height="594" filterUnits="userSpaceOnUse" color-interpolation-filters="sRGB">
<feFlood flood-opacity="0" result="BackgroundImageFix"/>
<feBlend mode="normal" in="SourceGraphic" in2="BackgroundImageFix" result="shape"/>
<feGaussianBlur stdDeviation="2" result="effect1_foregroundBlur_1_2"/>
</filter>
<linearGradient id="paint0_linear_1_2" x1="422" y1="0" x2="422" y2="824" gradientUnits="userSpaceOnUse">
<stop stop-color="#C1C5D3"/>
<stop offset="1" stop-color="#9295A0"/>
</linearGradient>
<linearGradient id="paint1_linear_1_2" x1="422" y1="532" x2="422" y2="753" gradientUnits="userSpaceOnUse">
<stop stop-color="#36383E" stop-opacity="0"/>
<stop offset="1" stop-color="#36383E"/>
</linearGradient>
<linearGradient id="paint2_linear_1_2" x1="790" y1="34" x2="398.51" y2="694.585" gradientUnits="userSpaceOnUse">
<stop stop-color="#6EDBFF"/>
<stop offset="0.2" stop-color="#45E0A8"/>
<stop offset="0.4" stop-color="#C7FA73"/>
<stop offset="0.6" stop-color="#FFE84D"/>
<stop offset="0.8" stop-color="#FF9200"/>
<stop offset="1" stop-color="#B880FF"/>
</linearGradient>
<linearGradient id="paint3_linear_1_2" x1="422" y1="719" x2="422" y2="848" gradientUnits="userSpaceOnUse">
<stop stop-color="#37383F"/>
<stop offset="1" stop-color="#37383F" stop-opacity="0.64"/>
</linearGradient>
<linearGradient id="paint4_linear_1_2" x1="422" y1="737" x2="422" y2="832" gradientUnits="userSpaceOnUse">
<stop stop-color="#37383F"/>
<stop offset="1" stop-color="#37383F" stop-opacity="0.64"/>
</linearGradient>
<linearGradient id="paint5_linear_1_2" x1="422" y1="737" x2="422" y2="832" gradientUnits="userSpaceOnUse">
<stop stop-color="#37383F"/>
<stop offset="1" stop-color="#37383F" stop-opacity="0.64"/>
</linearGradient>
<linearGradient id="paint6_linear_1_2" x1="422" y1="737" x2="422" y2="832" gradientUnits="userSpaceOnUse">
<stop stop-color="#37383F"/>
<stop offset="1" stop-color="#37383F" stop-opacity="0.64"/>
</linearGradient>
<linearGradient id="paint7_linear_1_2" x1="422" y1="684" x2="422" y2="754" gradientUnits="userSpaceOnUse">
<stop stop-color="#C1C3D1"/>
<stop offset="1" stop-color="#9294A3"/>
</linearGradient>
<linearGradient id="paint8_linear_1_2" x1="422" y1="698.5" x2="422" y2="754" gradientUnits="userSpaceOnUse">
<stop stop-color="#C1C3D1" stop-opacity="0"/>
<stop offset="1" stop-color="#6A6C7A"/>
</linearGradient>
<linearGradient id="paint9_linear_1_2" x1="422" y1="698.5" x2="422" y2="763.5" gradientUnits="userSpaceOnUse">
<stop offset="0.497581" stop-color="#C1C3D1" stop-opacity="0"/>
<stop offset="1" stop-color="#6A6C7A"/>
</linearGradient>
<linearGradient id="paint10_linear_1_2" x1="268.5" y1="686.5" x2="93.5" y2="762.5" gradientUnits="userSpaceOnUse">
<stop offset="0.497581" stop-color="#C1C3D1" stop-opacity="0"/>
<stop offset="1" stop-color="#6A6C7A"/>
</linearGradient>
<linearGradient id="paint11_linear_1_2" x1="567" y1="683.5" x2="758.5" y2="764.5" gradientUnits="userSpaceOnUse">
<stop offset="0.497581" stop-color="#C1C3D1" stop-opacity="0"/>
<stop offset="1" stop-color="#6A6C7A"/>
</linearGradient>
<linearGradient id="paint12_linear_1_2" x1="421.999" y1="548" x2="421.999" y2="684.33" gradientUnits="userSpaceOnUse">
<stop stop-color="white"/>
<stop offset="1" stop-color="#E5E7EF"/>
</linearGradient>
<linearGradient id="paint13_linear_1_2" x1="420.669" y1="317.851" x2="420.669" y2="698.241" gradientUnits="userSpaceOnUse">
<stop stop-color="white" stop-opacity="0"/>
<stop offset="1" stop-color="white"/>
</linearGradient>
<linearGradient id="paint14_linear_1_2" x1="699.001" y1="556" x2="699.001" y2="676" gradientUnits="userSpaceOnUse">
<stop stop-color="#353639"/>
<stop offset="1" stop-color="#535661"/>
</linearGradient>
<linearGradient id="paint15_linear_1_2" x1="171.5" y1="648" x2="171.5" y2="677.283" gradientUnits="userSpaceOnUse">
<stop stop-color="#37383F"/>
<stop offset="1" stop-color="#37383F" stop-opacity="0"/>
</linearGradient>
<linearGradient id="paint16_linear_1_2" x1="117" y1="622" x2="237" y2="622" gradientUnits="userSpaceOnUse">
<stop stop-color="#3B3E46"/>
<stop offset="0.5" stop-color="#545763"/>
<stop offset="1" stop-color="#3B3E46"/>
</linearGradient>
<linearGradient id="paint17_linear_1_2" x1="177" y1="574" x2="177" y2="634" gradientUnits="userSpaceOnUse">
<stop stop-color="#9497A6"/>
<stop offset="1" stop-color="#747886"/>
</linearGradient>
<linearGradient id="paint18_linear_1_2" x1="177" y1="574.042" x2="177" y2="629.042" gradientUnits="userSpaceOnUse">
<stop stop-color="#C7CBDC" stop-opacity="0"/>
<stop offset="1" stop-color="#C7CBDC"/>
</linearGradient>
<linearGradient id="paint19_linear_1_2" x1="341.5" y1="648" x2="341.5" y2="677.283" gradientUnits="userSpaceOnUse">
<stop stop-color="#37383F"/>
<stop offset="1" stop-color="#37383F" stop-opacity="0"/>
</linearGradient>
<linearGradient id="paint20_linear_1_2" x1="287" y1="622" x2="407" y2="622" gradientUnits="userSpaceOnUse">
<stop stop-color="#3B3E46"/>
<stop offset="0.5" stop-color="#545763"/>
<stop offset="1" stop-color="#3B3E46"/>
</linearGradient>
<linearGradient id="paint21_linear_1_2" x1="347" y1="574" x2="347" y2="634" gradientUnits="userSpaceOnUse">
<stop stop-color="#9497A6"/>
<stop offset="1" stop-color="#747886"/>
</linearGradient>
<linearGradient id="paint22_linear_1_2" x1="347" y1="577.309" x2="347" y2="632" gradientUnits="userSpaceOnUse">
<stop stop-color="#C7CBDC" stop-opacity="0"/>
<stop offset="1" stop-color="#C7CBDC"/>
</linearGradient>
<linearGradient id="paint23_linear_1_2" x1="422" y1="64" x2="422" y2="524" gradientUnits="userSpaceOnUse">
<stop stop-color="#9CA0AC"/>
<stop offset="1" stop-color="#D5D7E2"/>
</linearGradient>
<linearGradient id="paint24_linear_1_2" x1="422" y1="76" x2="422" y2="512" gradientUnits="userSpaceOnUse">
<stop stop-color="#656978"/>
<stop offset="1" stop-color="#F2F4FD"/>
</linearGradient>
<linearGradient id="paint25_linear_1_2" x1="422" y1="80" x2="422" y2="508" gradientUnits="userSpaceOnUse">
<stop stop-color="#202123"/>
<stop offset="1" stop-color="#36373A"/>
</linearGradient>
<linearGradient id="paint26_linear_1_2" x1="655" y1="145" x2="440.977" y2="542.856" gradientUnits="userSpaceOnUse">
<stop stop-color="#6EDBFF"/>
<stop offset="0.2" stop-color="#45E0A8"/>
<stop offset="0.4" stop-color="#C7FA73"/>
<stop offset="0.6" stop-color="#FFE84D"/>
<stop offset="0.8" stop-color="#FF9200"/>
<stop offset="1" stop-color="#B880FF"/>
</linearGradient>
<linearGradient id="paint27_linear_1_2" x1="572" y1="154" x2="282" y2="434" gradientUnits="userSpaceOnUse">
<stop stop-color="#6EDBFF"/>
<stop offset="0.2" stop-color="#45E0A8"/>
<stop offset="0.4" stop-color="#C7FA73"/>
<stop offset="0.6" stop-color="#FFE84D"/>
<stop offset="0.8" stop-color="#FF9200"/>
<stop offset="1" stop-color="#B880FF"/>
</linearGradient>
<linearGradient id="paint28_linear_1_2" x1="572" y1="154" x2="282" y2="434" gradientUnits="userSpaceOnUse">
<stop stop-color="#6EDBFF"/>
<stop offset="0.2" stop-color="#45E0A8"/>
<stop offset="0.4" stop-color="#C7FA73"/>
<stop offset="0.6" stop-color="#FFE84D"/>
<stop offset="0.8" stop-color="#FF9200"/>
<stop offset="1" stop-color="#B880FF"/>
</linearGradient>
<linearGradient id="paint29_linear_1_2" x1="572" y1="154" x2="282" y2="434" gradientUnits="userSpaceOnUse">
<stop stop-color="#6EDBFF"/>
<stop offset="0.2" stop-color="#45E0A8"/>
<stop offset="0.4" stop-color="#C7FA73"/>
<stop offset="0.6" stop-color="#FFE84D"/>
<stop offset="0.8" stop-color="#FF9200"/>
<stop offset="1" stop-color="#B880FF"/>
</linearGradient>
<linearGradient id="paint30_linear_1_2" x1="572" y1="154" x2="282" y2="434" gradientUnits="userSpaceOnUse">
<stop stop-color="#6EDBFF"/>
<stop offset="0.2" stop-color="#45E0A8"/>
<stop offset="0.4" stop-color="#C7FA73"/>
<stop offset="0.6" stop-color="#FFE84D"/>
<stop offset="0.8" stop-color="#FF9200"/>
<stop offset="1" stop-color="#B880FF"/>
</linearGradient>
<linearGradient id="paint31_linear_1_2" x1="777.714" y1="80" x2="368.056" y2="693.63" gradientUnits="userSpaceOnUse">
<stop stop-color="#6EDBFF"/>
<stop offset="0.2" stop-color="#45E0A8"/>
<stop offset="0.4" stop-color="#C7FA73"/>
<stop offset="0.6" stop-color="#FFE84D"/>
<stop offset="0.8" stop-color="#FF9200"/>
<stop offset="1" stop-color="#B880FF"/>
</linearGradient>
<linearGradient id="paint32_linear_1_2" x1="431.5" y1="303" x2="336.5" y2="82.5" gradientUnits="userSpaceOnUse">
<stop stop-color="white"/>
<stop offset="1" stop-color="white" stop-opacity="0"/>
</linearGradient>
</defs>
</svg>
