<?xml version="1.0" encoding="UTF-8"?>
<svg width="628px" height="685px" viewBox="0 0 628 685" version="1.1" xmlns="http://www.w3.org/2000/svg" xmlns:xlink="http://www.w3.org/1999/xlink">
    <title>square.and.arrow.up.on.square.fill</title>
    <g id="getqreate.app" stroke="none" stroke-width="1" fill="none" fill-rule="evenodd">
        <g id="square.and.arrow.up.on.square.fill" fill="#ea580c" fill-rule="nonzero">
            <rect id="Rectangle" opacity="0" x="0" y="0" width="627.734" height="684.57"></rect>
            <path d="M596.68,345.703 L596.68,596.094 C596.68,645.898 571.094,671.484 520.508,671.484 L230.859,671.484 C180.469,671.484 154.883,646.094 154.883,596.094 L154.883,590.039 L396.875,590.039 C464.648,590.039 504.102,550.586 504.102,483.594 L504.102,270.508 L520.508,270.508 C571.094,270.508 596.68,296.094 596.68,345.703 Z" id="Path" fill-opacity="0.85"></path>
            <path d="M31.0547,483.398 C31.0547,533.398 56.8359,558.594 107.227,558.594 L396.875,558.594 C447.461,558.594 472.852,533.203 472.852,483.398 L472.852,233.008 C472.852,183.398 447.461,157.812 396.875,157.812 L107.227,157.812 C56.8359,157.812 31.0547,183.008 31.0547,233.008 L31.0547,483.398 Z M251.953,363.477 C242.773,363.477 234.961,355.859 234.961,346.875 L234.961,84.7656 L236.328,47.6562 L220.703,63.6719 L178.32,108.398 C175.195,111.719 170.508,113.477 166.211,113.477 C157.422,113.477 150.781,107.031 150.781,98.2422 C150.781,93.75 152.734,90.2344 155.859,87.1094 L239.648,5.66406 C243.945,1.36719 247.656,0 251.953,0 C256.445,0 260.156,1.36719 264.453,5.66406 L348.047,87.1094 C351.367,90.2344 353.125,93.75 353.125,98.2422 C353.125,107.031 346.289,113.477 337.5,113.477 C333.203,113.477 328.711,111.719 325.781,108.398 L283.203,63.6719 L267.773,47.6562 L269.141,84.7656 L269.141,346.875 C269.141,355.859 261.328,363.477 251.953,363.477 Z" id="Shape" fill-opacity="0.85"></path>
        </g>
    </g>
</svg>