<?xml version="1.0" encoding="UTF-8"?>
<!--Generator: Apple Native CoreSVG 326-->
<!DOCTYPE svg
PUBLIC "-//W3C//DTD SVG 1.1//EN"
       "http://www.w3.org/Graphics/SVG/1.1/DTD/svg11.dtd">
<svg version="1.1" xmlns="http://www.w3.org/2000/svg" xmlns:xlink="http://www.w3.org/1999/xlink" viewBox="0 0 508.789 509.18">
 <g>
  <rect height="509.18" opacity="0" width="508.789" x="0" y="0"/>
  <path d="M508.789 254.492C508.789 394.531 394.531 508.789 254.297 508.789C114.258 508.789 0 394.531 0 254.492C0 114.258 114.258 0 254.297 0C394.531 0 508.789 114.258 508.789 254.492ZM364.844 123.633L215.039 198.047C207.617 201.367 202.344 206.641 198.047 215.039L123.438 365.234C115.82 381.055 127.734 393.359 143.75 385.547L293.945 310.938C301.758 307.227 307.227 301.562 311.133 293.945L385.352 143.945C393.164 127.734 381.836 115.43 364.844 123.633ZM286.328 254.688C286.328 272.266 272.07 286.328 254.492 286.328C237.109 286.328 222.852 272.266 222.852 254.688C222.852 237.305 237.109 223.047 254.492 223.047C272.07 223.047 286.328 237.305 286.328 254.688Z" fill="#2563eb" fill-opacity="0.85"/>
 </g>
</svg>
