<?xml version="1.0" encoding="UTF-8"?>
<!--Generator: Apple Native CoreSVG 326-->
<!DOCTYPE svg
PUBLIC "-//W3C//DTD SVG 1.1//EN"
       "http://www.w3.org/Graphics/SVG/1.1/DTD/svg11.dtd">
<svg version="1.1" xmlns="http://www.w3.org/2000/svg" xmlns:xlink="http://www.w3.org/1999/xlink" viewBox="0 0 419.336 538.477">
 <g>
  <rect height="538.477" opacity="0" width="419.336" x="0" y="0"/>
  <path d="M75.1953 538.477L344.141 538.477C394.141 538.477 419.336 512.695 419.336 462.5L419.336 228.711C419.336 199.609 415.82 186.914 397.656 168.555L252.93 21.875C235.742 4.10156 221.68 0.195312 195.703 0.195312L75.1953 0.195312C25.5859 0.195312 0 25.7812 0 76.1719L0 462.5C0 512.891 25.1953 538.477 75.1953 538.477ZM76.9531 503.906C49.0234 503.906 34.5703 489.062 34.5703 461.719L34.5703 76.9531C34.5703 50.1953 49.0234 34.7656 77.1484 34.7656L192.773 34.7656L192.773 184.375C192.773 214.258 207.812 228.711 237.109 228.711L384.766 228.711L384.766 461.719C384.766 489.062 370.312 503.906 342.188 503.906ZM240.82 196.094C229.883 196.094 225.391 191.797 225.391 180.664L225.391 41.6016L377.93 196.094Z" fill="#ec4899" fill-opacity="0.85"/>
  <path d="M156.641 470.898L263.281 470.898C277.93 470.898 285.352 463.281 285.352 447.461L285.352 364.062C285.352 349.219 278.906 341.602 266.016 340.82L266.016 315.43C266.016 278.125 243.359 253.125 209.961 253.125C176.562 253.125 153.906 278.125 153.906 315.43L153.906 340.82C141.016 341.602 134.57 349.219 134.57 364.062L134.57 447.461C134.57 463.281 141.992 470.898 156.641 470.898ZM174.023 340.625L174.023 313.477C174.023 288.867 188.281 272.656 209.961 272.656C231.641 272.656 245.898 288.867 245.898 313.477L245.898 340.625Z" fill="#ec4899" fill-opacity="0.85"/>
 </g>
</svg>
