<?xml version="1.0" encoding="UTF-8"?>
<!--Generator: Apple Native CoreSVG 326-->
<!DOCTYPE svg
PUBLIC "-//W3C//DTD SVG 1.1//EN"
       "http://www.w3.org/Graphics/SVG/1.1/DTD/svg11.dtd">
<svg version="1.1" xmlns="http://www.w3.org/2000/svg" xmlns:xlink="http://www.w3.org/1999/xlink" viewBox="0 0 691.261 514.434">
 <g>
  <rect height="514.434" opacity="0" width="691.261" x="0" y="0"/>
  <path d="M5.20091 451.065C27.2712 522.94 136.256 534.854 255.201 480.752L243.873 456.338C141.92 503.018 46.9978 496.768 31.1775 443.252C-8.66627 312.198 270.631 295.01 239.185 188.76C223.756 136.612 100.513 145.596 12.6228 204.776C-3.19752 215.127 11.8415 237.393 27.2712 226.846C93.0915 183.291 204.42 166.104 213.599 196.377C220.24 218.838 202.076 234.463 131.568 274.307C63.99 312.393-22.1428 360.635 5.20091 451.065Z" fill="#65a30d" fill-opacity="0.85"/>
  <path d="M355.006 433.096L624.342 164.151L584.302 124.112L314.967 392.862L290.552 446.768C288.209 452.237 294.068 458.291 299.537 456.143ZM645.045 143.838L668.873 120.401C680.982 108.291 681.568 95.7914 670.631 84.8539L663.795 77.8227C653.052 67.2758 640.162 68.4477 628.443 79.9711L604.615 103.409Z" fill="black" fill-opacity="0.85"/>
 </g>
</svg>
